<?xml version="1.0" standalone="no"?>
<!DOCTYPE svg PUBLIC "-//W3C//DTD SVG 20010904//EN"
 "http://www.w3.org/TR/2001/REC-SVG-20010904/DTD/svg10.dtd">
<svg version="1.0" xmlns="http://www.w3.org/2000/svg"
 width="1080.000000pt" height="1080.000000pt" viewBox="0 0 1080.000000 1080.000000"
 preserveAspectRatio="xMidYMid meet">
<metadata>
Created by potrace 1.16, written by Peter Selinger 2001-2019
</metadata>
<g transform="translate(0.000000,1080.000000) scale(0.100000,-0.100000)"
fill="#000000" stroke="none">
<path d="M4985 9883 c-16 -2 -83 -10 -147 -18 -327 -41 -809 -167 -1073 -279
-22 -10 -60 -24 -84 -33 -24 -8 -126 -54 -226 -103 -614 -296 -1154 -727
-1586 -1265 -209 -261 -376 -526 -538 -855 -48 -96 -96 -202 -108 -235 -12
-33 -51 -139 -87 -235 -101 -272 -195 -680 -231 -1001 -14 -121 -16 -219 -12
-560 5 -504 16 -596 128 -1054 135 -559 438 -1180 804 -1650 247 -318 483
-555 804 -810 116 -92 160 -124 336 -242 178 -120 620 -352 738 -387 l47 -14
0 2136 c0 2096 0 2139 20 2262 90 556 427 1022 918 1269 111 56 340 128 486
153 103 17 149 19 306 15 210 -6 272 -17 470 -84 455 -153 831 -519 1015 -988
97 -249 129 -416 129 -680 0 -490 -129 -828 -477 -1243 -253 -302 -589 -586
-982 -829 -144 -89 -159 -97 -152 -85 8 12 88 278 132 437 15 55 50 172 77
260 27 88 60 202 74 255 14 52 56 196 93 320 37 124 83 277 101 340 17 63 51
176 75 250 24 74 64 207 89 295 25 88 57 196 71 240 l25 80 -5 -55 c-3 -30 -7
-287 -8 -570 -2 -552 1 -597 53 -770 26 -84 49 -115 80 -105 35 11 173 158
239 255 81 118 175 308 205 415 59 211 70 287 70 500 0 220 -15 321 -76 515
-107 336 -377 666 -680 834 -232 127 -393 170 -648 170 -264 0 -411 -34 -645
-150 -160 -79 -239 -137 -378 -277 -233 -234 -364 -511 -412 -867 -12 -88 -15
-457 -15 -2250 l0 -2146 83 -26 c195 -63 592 -145 832 -173 185 -21 829 -21
1015 1 371 43 834 159 1144 286 38 15 73 28 78 28 5 0 96 41 201 92 198 94
453 237 566 316 36 25 92 64 126 86 233 155 605 493 825 751 262 306 455 599
636 965 81 164 97 201 149 335 150 386 242 762 290 1180 21 180 21 768 0 955
-76 676 -295 1315 -650 1895 -384 627 -938 1168 -1586 1548 -132 77 -533 277
-555 277 -6 0 -49 15 -95 34 -211 85 -365 132 -619 189 -428 97 -532 107
-1028 106 -218 -1 -410 -4 -427 -6z"/>
<path d="M6003 3968 c-11 -40 -38 -128 -58 -196 -21 -67 -35 -125 -32 -129 7
-6 150 112 205 170 l33 34 -37 54 c-20 30 -45 73 -55 97 -10 23 -22 42 -27 42
-5 0 -18 -33 -29 -72z"/>
</g>
</svg>
